<svg  height="100%" width="100%" viewBox="0 0 1125 900" fill="none" xmlns="http://www.w3.org/2000/svg">
<path d="M2146.59 65.3425C2116.68 -218.065 2027.09 -361.511 1877.84 -364.999C1653.96 -370.229 1209.54 -200.789 934.775 -314.071C660.023 -427.353 190.802 -10.3104 263.293 377.01C335.784 764.331 423.416 1372.97 1306.34 946.203C1894.96 661.689 2175.04 368.075 2146.58 65.3439L2146.59 65.3425Z" fill="#EEBBC3" fill-opacity="0.1"/>
<path d="M2038.11 170.285C2013.01 -67.5753 1937.82 -187.967 1812.56 -190.895C1624.66 -195.285 1251.66 -53.0758 1021.06 -148.152C790.46 -243.228 396.65 106.79 457.49 431.863C518.331 756.936 591.879 1267.76 1332.9 909.578C1826.92 670.79 2061.99 424.364 2038.11 170.286L2038.11 170.285Z" fill="#EEBBC3" fill-opacity="0.4"/>
<path d="M1929.64 275.227C1909.34 82.9146 1848.55 -14.4237 1747.27 -16.7907C1595.36 -20.3398 1293.78 94.6377 1107.34 17.7674C920.898 -59.1022 602.497 223.891 651.688 486.716C700.878 749.541 760.343 1162.55 1359.47 872.954C1758.89 679.891 1948.94 480.653 1929.64 275.228L1929.64 275.227Z" fill="#232946" fill-opacity="0.55"/>
<path d="M1821.16 380.169C1805.67 233.404 1759.28 159.12 1681.99 157.314C1566.05 154.605 1335.9 242.351 1193.62 183.687C1051.33 125.023 808.345 340.992 845.885 541.569C883.425 742.146 928.806 1057.33 1386.03 836.329C1690.85 688.991 1835.89 536.941 1821.16 380.17L1821.16 380.169Z" fill="#232946" fill-opacity="0.7"/>
</svg>
